# Blender 5.1.2
# www.blender.org
mtllib Tonglo.mtl
o Plane
v -1.000000 -0.000000 0.000000
v 1.000000 -0.000000 0.000000
v 1.000000 0.000000 -2.000000
v -1.000000 0.000000 -2.000000
v -1.000000 2.000000 0.000000
v 0.000000 3.000000 0.000000
v -0.965926 2.258819 0.000000
v -0.866025 2.500000 0.000000
v -0.707107 2.707107 0.000000
v -0.500000 2.866025 0.000000
v -0.258819 2.965926 0.000000
v 1.000000 2.000000 0.000000
v 0.965926 2.258819 0.000000
v 0.866025 2.500000 0.000000
v 0.707107 2.707107 0.000000
v 0.500000 2.866025 0.000000
v 0.258819 2.965926 0.000000
v -1.000000 2.000000 -2.000000
v 0.000000 3.000000 -2.000000
v -0.965926 2.258819 -2.000000
v -0.866025 2.500000 -2.000000
v -0.707107 2.707107 -2.000000
v -0.500000 2.866025 -2.000000
v -0.258819 2.965926 -2.000000
v 1.000000 2.000000 -2.000000
v 0.965926 2.258819 -2.000000
v 0.866025 2.500000 -2.000000
v 0.707107 2.707107 -2.000000
v 0.500000 2.866025 -2.000000
v 0.258819 2.965926 -2.000000
v -1.060969 2.612551 -2.000000
v -0.866278 2.866277 -2.000000
v -1.224620 2.014722 -2.000000
v -1.183357 2.317080 -2.000000
v -1.224620 2.014722 0.000000
v -1.183357 2.317080 0.000000
v -1.060969 2.612551 0.000000
v -0.866278 2.866278 0.000000
v -0.612551 3.060969 0.000000
v -0.317080 3.183357 0.000000
v 0.000000 3.225101 0.000000
v 1.224620 2.014722 0.000000
v 1.183357 2.317080 0.000000
v 1.060969 2.612551 0.000000
v 0.866278 2.866278 0.000000
v 0.612551 3.060969 0.000000
v 0.317080 3.183357 0.000000
v -1.225101 -0.000000 0.000000
v 1.225101 -0.000000 0.000000
v -0.612551 3.060969 -2.000000
v -0.317080 3.183357 -2.000000
v 0.000000 3.225101 -2.000000
v 1.224620 2.014722 -2.000000
v 1.183357 2.317080 -2.000000
v 1.060969 2.612551 -2.000000
v 0.866278 2.866277 -2.000000
v 0.612551 3.060969 -2.000000
v 0.317080 3.183357 -2.000000
v -1.225101 0.000000 -2.000000
v 1.225101 0.000000 -2.000000
vn 0.9979 -0.0654 -0.0000
vn 0.9659 -0.2588 -0.0000
vn -0.8660 -0.5000 -0.0000
vn -0.7071 -0.7071 -0.0000
vn 0.8660 -0.5000 -0.0000
vn -0.5000 -0.8660 -0.0000
vn 0.7071 -0.7071 -0.0000
vn -0.2588 -0.9659 -0.0000
vn 0.5000 -0.8660 -0.0000
vn -0.0000 -1.0000 -0.0000
vn 0.2588 -0.9659 -0.0000
vn 1.0000 -0.0000 -0.0000
vn -0.9979 -0.0654 -0.0000
vn -0.9659 -0.2588 -0.0000
vn -1.0000 -0.0000 -0.0000
vn -0.9977 0.0679 -0.0000
vn -0.9653 0.2611 -0.0000
vn 0.8660 0.5000 -0.0000
vn 0.7071 0.7071 -0.0000
vn -0.8660 0.5000 -0.0000
vn 0.5000 0.8660 -0.0000
vn -0.7071 0.7071 -0.0000
vn 0.2588 0.9659 -0.0000
vn -0.5000 0.8660 -0.0000
vn -0.0000 1.0000 -0.0000
vn -0.2588 0.9659 -0.0000
vn -1.0000 0.0002 -0.0000
vn 0.9977 0.0679 -0.0000
vn 0.9653 0.2611 -0.0000
vn 1.0000 0.0002 -0.0000
vn -0.0000 -0.0000 -1.0000
vn -0.0000 -0.0000 1.0000
vt 0.000000 0.000000
s 1
f 5/1/1 18/1/1 20/1/2 7/1/2
f 14/1/3 15/1/4 28/1/4 27/1/3
f 7/1/2 20/1/2 21/1/5 8/1/5
f 15/1/4 16/1/6 29/1/6 28/1/4
f 8/1/5 21/1/5 22/1/7 9/1/7
f 16/1/6 17/1/8 30/1/8 29/1/6
f 9/1/7 22/1/7 23/1/9 10/1/9
f 17/1/8 6/1/10 19/1/10 30/1/8
f 10/1/9 23/1/9 24/1/11 11/1/11
f 5/1/1 1/1/12 4/1/12 18/1/1
f 11/1/11 24/1/11 19/1/10 6/1/10
f 12/1/13 13/1/14 26/1/14 25/1/13
f 12/1/13 25/1/13 3/1/15 2/1/15
f 13/1/14 14/1/3 27/1/3 26/1/14
f 35/1/16 36/1/17 34/1/17 33/1/16
f 44/1/18 55/1/18 56/1/19 45/1/19
f 36/1/17 37/1/20 31/1/20 34/1/17
f 45/1/19 56/1/19 57/1/21 46/1/21
f 37/1/20 38/1/22 32/1/22 31/1/20
f 46/1/21 57/1/21 58/1/23 47/1/23
f 38/1/22 39/1/24 50/1/24 32/1/22
f 47/1/23 58/1/23 52/1/25 41/1/25
f 39/1/24 40/1/26 51/1/26 50/1/24
f 35/1/16 33/1/16 59/1/27 48/1/27
f 40/1/26 41/1/25 52/1/25 51/1/26
f 42/1/28 53/1/28 54/1/29 43/1/29
f 42/1/28 49/1/30 60/1/30 53/1/28
f 43/1/29 54/1/29 55/1/18 44/1/18
f 21/1/31 20/1/31 34/1/31 31/1/31
f 23/1/31 22/1/31 32/1/31 50/1/31
f 5/1/32 7/1/32 36/1/32 35/1/32
f 24/1/31 23/1/31 50/1/31 51/1/31
f 7/1/32 8/1/32 37/1/32 36/1/32
f 19/1/31 24/1/31 51/1/31 52/1/31
f 8/1/32 9/1/32 38/1/32 37/1/32
f 25/1/31 26/1/31 54/1/31 53/1/31
f 9/1/32 10/1/32 39/1/32 38/1/32
f 26/1/31 27/1/31 55/1/31 54/1/31
f 10/1/32 11/1/32 40/1/32 39/1/32
f 27/1/31 28/1/31 56/1/31 55/1/31
f 11/1/32 6/1/32 41/1/32 40/1/32
f 28/1/31 29/1/31 57/1/31 56/1/31
f 13/1/32 12/1/32 42/1/32 43/1/32
f 4/1/10 1/1/10 48/1/10 59/1/10
f 29/1/31 30/1/31 58/1/31 57/1/31
f 14/1/32 13/1/32 43/1/32 44/1/32
f 18/1/31 4/1/31 59/1/31 33/1/31
f 15/1/32 14/1/32 44/1/32 45/1/32
f 3/1/31 25/1/31 53/1/31 60/1/31
f 16/1/32 15/1/32 45/1/32 46/1/32
f 17/1/32 16/1/32 46/1/32 47/1/32
f 2/1/10 3/1/10 60/1/10 49/1/10
f 22/1/31 21/1/31 31/1/31 32/1/31
f 1/1/32 5/1/32 35/1/32 48/1/32
f 6/1/32 17/1/32 47/1/32 41/1/32
f 20/1/31 18/1/31 33/1/31 34/1/31
f 12/1/32 2/1/32 49/1/32 42/1/32
f 30/1/31 19/1/31 52/1/31 58/1/31
